<?xml version="1.0" standalone="no"?>
<!DOCTYPE svg PUBLIC "-//W3C//DTD SVG 20010904//EN"
 "http://www.w3.org/TR/2001/REC-SVG-20010904/DTD/svg10.dtd">
<svg version="1.0" xmlns="http://www.w3.org/2000/svg"
 width="824.000000pt" height="824.000000pt" viewBox="0 0 824.000000 824.000000"
 preserveAspectRatio="xMidYMid meet">
<metadata>
Created by potrace 1.14, written by Peter Selinger 2001-2017
</metadata>
<g transform="translate(0.000000,824.000000) scale(0.100000,-0.100000)"
fill="#000000" stroke="none">
<path d="M3 6038 c2 -1014 7 -1870 10 -1903 13 -130 24 -220 32 -255 3 -14 8
-45 10 -70 3 -25 11 -74 19 -110 8 -36 17 -82 20 -103 3 -21 10 -46 15 -55 5
-9 9 -20 9 -25 1 -4 6 -33 13 -65 15 -68 16 -71 19 -77 1 -3 3 -8 4 -12 6 -27
38 -131 45 -148 5 -11 14 -38 20 -60 7 -22 16 -49 20 -60 5 -11 15 -38 24 -60
45 -119 71 -179 125 -295 20 -41 36 -77 37 -80 0 -3 9 -21 19 -40 11 -19 37
-69 59 -110 21 -41 44 -82 51 -90 6 -8 20 -31 30 -50 28 -51 165 -261 182
-277 8 -8 14 -18 14 -22 0 -5 10 -19 23 -33 12 -13 33 -40 47 -60 26 -36 80
-103 115 -143 11 -13 38 -45 60 -71 88 -106 367 -376 471 -456 16 -12 35 -28
42 -35 7 -7 48 -39 90 -70 42 -32 79 -61 80 -65 2 -5 10 -8 17 -8 7 0 15 -4
17 -8 4 -11 264 -182 277 -182 5 0 16 -6 23 -14 8 -7 59 -37 113 -66 55 -29
111 -59 125 -66 36 -19 220 -104 225 -104 3 0 24 -9 48 -19 48 -21 120 -50
157 -61 14 -5 61 -21 105 -38 44 -16 82 -29 85 -29 3 -1 25 -7 50 -14 59 -16
62 -17 85 -23 11 -2 32 -9 46 -14 15 -6 30 -8 33 -5 3 3 11 1 18 -4 11 -9 44
-17 113 -29 11 -2 80 -15 153 -29 73 -13 136 -24 140 -24 4 1 9 1 12 -1 16 -6
186 -23 242 -24 27 -1 48 -4 48 -7 0 -3 138 -4 308 -2 333 4 372 5 372 13 0 3
25 6 54 7 30 1 67 5 83 8 15 4 35 7 43 7 15 1 135 21 195 32 17 3 46 9 65 13
43 8 31 5 170 38 63 15 121 33 129 39 8 6 16 10 18 8 3 -3 104 23 133 35 20 8
42 14 58 15 6 1 12 5 12 10 0 4 7 8 16 8 18 0 164 56 254 97 53 24 75 34 150
67 19 9 42 20 50 25 8 5 29 16 45 24 28 13 84 43 180 97 22 12 47 28 56 36 8
8 20 14 25 14 8 0 83 47 109 68 6 4 49 34 96 65 48 32 92 64 99 72 7 8 16 15
21 15 5 0 23 14 41 30 17 17 34 30 38 30 4 0 18 9 31 21 13 11 46 39 73 62
243 205 467 443 654 692 96 129 112 153 112 164 0 5 7 11 15 15 8 3 15 12 15
21 0 8 5 15 10 15 6 0 10 4 10 9 0 5 26 51 59 102 104 167 206 368 294 579 42
101 123 333 143 410 51 190 63 238 68 265 2 17 5 30 6 30 2 0 8 25 15 70 9 58
14 86 21 120 3 17 7 44 9 60 1 17 5 46 8 65 4 19 9 60 13 90 3 30 8 75 11 100
3 25 7 879 10 1898 l4 1852 -4121 0 -4121 0 4 -1842z"/>
</g>
</svg>
