<?xml version="1.0" encoding="UTF-8"?>
<svg id="Layer_2" data-name="Layer 2" xmlns="http://www.w3.org/2000/svg" viewBox="0 0 3204.97 151.2">
  <g id="Layer_1-2" data-name="Layer 1">
    <g>
      <path d="M114.8,107.8c0,8.27-1.84,15-5.51,20.2-3.67,5.2-8.32,9.3-13.92,12.3-5.61,3-11.82,5.07-18.63,6.2-6.81,1.13-13.42,1.7-19.83,1.7H0V3.6h50.29c4.54,0,9.32.03,14.33.1,5.01.07,9.72.63,14.13,1.7,8.82,2,16.16,5.87,22.04,11.6,5.88,5.73,8.82,13.47,8.82,23.2s-2.68,16.53-8.05,21.6c-5.37,5.07-12.34,8.73-20.93,11,4.96.93,9.52,2.27,13.67,4,4.16,1.73,7.74,4,10.76,6.8,3.02,2.8,5.39,6.2,7.14,10.2,1.74,4,2.62,8.67,2.62,14ZM78.2,44.2c0-3.73-.77-6.83-2.3-9.3-1.53-2.47-3.5-4.4-5.9-5.8s-5.13-2.4-8.2-3c-3.07-.6-6.2-.9-9.4-.9h-22v38.6h20c3.47,0,6.87-.23,10.2-.7,3.33-.47,6.3-1.4,8.9-2.8s4.7-3.37,6.3-5.9c1.6-2.53,2.4-5.93,2.4-10.2ZM82.6,105.6c0-4.27-.74-7.77-2.21-10.5-1.47-2.73-3.45-4.9-5.92-6.5-2.48-1.6-5.36-2.7-8.63-3.3-3.28-.6-6.79-.9-10.54-.9h-24.9v42.2h23.09c3.61,0,7.19-.27,10.74-.8,3.55-.53,6.66-1.57,9.34-3.1,2.68-1.53,4.85-3.67,6.52-6.4,1.67-2.73,2.51-6.3,2.51-10.7Z"/>
      <path d="M238.6,148.2l-12.4-33.2h-63.2l-12.4,33.2h-31L178.2,3.6h35.4l59.6,144.6h-34.6ZM194.8,26l-24.2,67.8h47.4l-23.2-67.8Z"/>
      <path d="M398.8,105.2c0,8.27-1.8,15.3-5.4,21.1-3.6,5.8-8.27,10.5-14,14.1-5.73,3.6-12.2,6.23-19.4,7.9-7.2,1.67-14.33,2.5-21.4,2.5-7.87,0-15.23-.83-22.1-2.5-6.87-1.67-12.9-4.33-18.1-8-5.2-3.67-9.33-8.5-12.4-14.5-3.07-6-4.67-13.33-4.8-22h31.4c.27,7.8,2.6,13.88,7,18.25,4.4,4.37,10.93,6.55,19.6,6.55,3.2,0,6.4-.4,9.6-1.2,3.2-.8,6.1-2.07,8.7-3.81,2.6-1.74,4.73-3.91,6.4-6.51,1.67-2.6,2.5-5.71,2.5-9.31,0-2.81-.6-5.18-1.8-7.11-1.2-1.93-2.9-3.64-5.1-5.11-2.2-1.47-4.93-2.74-8.2-3.81-3.27-1.07-6.9-2.2-10.9-3.41l-10.4-3.01c-5.73-1.6-11.3-3.47-16.7-5.61-5.4-2.14-10.23-4.77-14.5-7.91-4.27-3.14-7.7-6.94-10.3-11.42-2.6-4.48-3.9-9.98-3.9-16.52,0-8.01,1.7-14.79,5.1-20.33,3.4-5.54,7.83-9.98,13.3-13.32,5.47-3.34,11.63-5.74,18.5-7.21,6.87-1.47,13.7-2.2,20.5-2.2s13.77.67,20.1,2c6.33,1.33,11.9,3.63,16.7,6.9,4.8,3.27,8.63,7.57,11.5,12.9,2.87,5.33,4.3,12,4.3,20h-31.4c-.67-6.67-2.9-11.8-6.7-15.4-3.8-3.6-9.43-5.4-16.9-5.4-2.93,0-5.77.4-8.5,1.2-2.73.8-5.2,1.97-7.4,3.5-2.2,1.53-3.97,3.5-5.3,5.9-1.33,2.4-2,5.2-2,8.4,0,2.67.6,4.9,1.8,6.7,1.2,1.8,3.03,3.43,5.5,4.9,2.47,1.47,5.6,2.87,9.4,4.2,3.8,1.33,8.23,2.8,13.3,4.4l12,3.8c6.13,2,11.7,4.1,16.7,6.3,5,2.2,9.27,4.83,12.8,7.9,3.53,3.07,6.23,6.7,8.1,10.9,1.87,4.2,2.8,9.3,2.8,15.3Z"/>
      <path d="M424.4,148.2V3.6h97.8v22.2h-67v37.8h63.4v22.2h-63.4v40.2h69v22.2h-99.8Z"/>
      <path d="M679.39,75.2c0,14.67-2.1,26.7-6.3,36.1-4.2,9.4-10.07,16.83-17.6,22.3-7.53,5.47-16.53,9.27-27,11.4-10.47,2.13-21.9,3.2-34.3,3.2h-45.4V3.6h50.2c11.6,0,22.33,1.2,32.2,3.6,9.87,2.4,18.37,6.37,25.5,11.9,7.13,5.53,12.7,12.87,16.7,22,4,9.13,6,20.5,6,34.1ZM647.19,75.6c0-9.07-1.07-16.77-3.2-23.1-2.13-6.33-5.33-11.47-9.6-15.4-4.27-3.93-9.57-6.8-15.9-8.6-6.33-1.8-13.77-2.7-22.3-2.7h-16v100.2h14.8c17.73,0,30.87-4,39.4-12,8.53-8,12.8-20.8,12.8-38.4Z"/>
      <path d="M893.19,148.2V3.6h31.4v144.6h-31.4Z"/>
      <path d="M1040.39,148.2l-55.6-119.2v119.2h-27V3.6h44l55.6,119.4V3.6h27v144.6h-44Z"/>
      <path d="M1305.99,148.2V3.6h31.4v121.8h67.6v22.8h-99Z"/>
      <path d="M1547.79,75.8c0,10.8-1.47,20.8-4.39,30-2.93,9.2-7.29,17.17-13.08,23.9-5.79,6.73-13.02,12-21.67,15.8-8.66,3.8-18.71,5.7-30.16,5.7s-21.67-1.87-30.26-5.6c-8.59-3.73-15.74-8.9-21.47-15.5s-9.99-14.5-12.78-23.7c-2.8-9.2-4.19-19.27-4.19-30.2s1.43-21.07,4.29-30.4c2.86-9.33,7.19-17.4,12.98-24.2,5.79-6.8,13.01-12.1,21.67-15.9,8.65-3.8,18.77-5.7,30.36-5.7s21.7,1.9,30.36,5.7c8.65,3.8,15.81,9.07,21.47,15.8,5.66,6.73,9.88,14.73,12.68,24,2.79,9.27,4.19,19.37,4.19,30.3ZM1516.39,75.2c0-6.13-.6-12.3-1.81-18.5s-3.27-11.8-6.22-16.8c-2.94-5-6.82-9.07-11.63-12.2-4.81-3.13-10.9-4.7-18.25-4.7s-13.2,1.6-17.95,4.8c-4.75,3.2-8.56,7.3-11.43,12.3s-4.91,10.6-6.12,16.8c-1.2,6.2-1.8,12.3-1.8,18.3s.53,12.53,1.6,18.8c1.07,6.27,3.01,11.9,5.82,16.9s6.62,9.1,11.43,12.3,10.96,4.8,18.45,4.8,13.67-1.57,18.55-4.7c4.88-3.13,8.76-7.23,11.63-12.3,2.88-5.07,4.88-10.73,6.02-17,1.14-6.27,1.71-12.53,1.71-18.8Z"/>
      <path d="M1683.38,105.2c0,8.27-1.8,15.3-5.4,21.1-3.6,5.8-8.27,10.5-14,14.1-5.73,3.6-12.2,6.23-19.4,7.9-7.2,1.67-14.33,2.5-21.4,2.5-7.87,0-15.23-.83-22.1-2.5-6.87-1.67-12.9-4.33-18.1-8-5.2-3.67-9.33-8.5-12.4-14.5-3.07-6-4.67-13.33-4.8-22h31.4c.27,7.8,2.6,13.88,7,18.25,4.4,4.37,10.93,6.55,19.6,6.55,3.2,0,6.4-.4,9.6-1.2,3.2-.8,6.1-2.07,8.7-3.81,2.6-1.74,4.73-3.91,6.4-6.51,1.67-2.6,2.5-5.71,2.5-9.31,0-2.81-.6-5.18-1.8-7.11-1.2-1.93-2.9-3.64-5.1-5.11-2.2-1.47-4.93-2.74-8.2-3.81-3.27-1.07-6.9-2.2-10.9-3.41l-10.4-3.01c-5.73-1.6-11.3-3.47-16.7-5.61-5.4-2.14-10.23-4.77-14.5-7.91-4.27-3.14-7.7-6.94-10.3-11.42-2.6-4.48-3.9-9.98-3.9-16.52,0-8.01,1.7-14.79,5.1-20.33,3.4-5.54,7.83-9.98,13.3-13.32,5.47-3.34,11.63-5.74,18.5-7.21,6.87-1.47,13.7-2.2,20.5-2.2s13.77.67,20.1,2c6.33,1.33,11.9,3.63,16.7,6.9,4.8,3.27,8.63,7.57,11.5,12.9,2.87,5.33,4.3,12,4.3,20h-31.4c-.67-6.67-2.9-11.8-6.7-15.4-3.8-3.6-9.43-5.4-16.9-5.4-2.93,0-5.77.4-8.5,1.2-2.73.8-5.2,1.97-7.4,3.5-2.2,1.53-3.97,3.5-5.3,5.9-1.33,2.4-2,5.2-2,8.4,0,2.67.6,4.9,1.8,6.7,1.2,1.8,3.03,3.43,5.5,4.9,2.47,1.47,5.6,2.87,9.4,4.2,3.8,1.33,8.23,2.8,13.3,4.4l12,3.8c6.13,2,11.7,4.1,16.7,6.3,5,2.2,9.27,4.83,12.8,7.9,3.53,3.07,6.23,6.7,8.1,10.9,1.87,4.2,2.8,9.3,2.8,15.3Z"/>
      <path d="M1873.18,148.2l-12.4-33.2h-63.2l-12.4,33.2h-31L1812.78,3.6h35.4l59.6,144.6h-34.6ZM1829.38,26l-24.2,67.8h47.4l-23.2-67.8Z"/>
      <path d="M2005.98,148.2l-55.6-119.2v119.2h-27V3.6h44l55.6,119.4V3.6h27v144.6h-44Z"/>
      <path d="M2178.58,148.7c-9.2,1.4-18.53,2.1-28,2.1-11.73,0-22.27-1.67-31.6-5-9.33-3.33-17.23-8.17-23.7-14.5-6.47-6.33-11.4-14.13-14.8-23.4-3.4-9.27-5.1-19.83-5.1-31.7s1.67-21.67,5-31c3.33-9.33,8.13-17.33,14.4-24,6.27-6.67,13.97-11.83,23.1-15.5,9.13-3.67,19.43-5.5,30.9-5.5,7.6,0,14.73.83,21.4,2.5,6.67,1.67,12.53,4.3,17.6,7.9,5.07,3.6,9.2,8.27,12.4,14,3.2,5.73,5.13,12.67,5.8,20.8h-31.8c-1.07-7.6-4.03-13.13-8.9-16.6-4.87-3.47-10.97-5.2-18.3-5.2s-13.3,1.54-18.3,4.61c-5,3.08-9,7.05-12,11.93s-5.17,10.42-6.5,16.63c-1.33,6.21-2,12.46-2,18.73,0,7.08.83,13.83,2.5,20.24,1.67,6.41,4.27,12.06,7.8,16.93,3.53,4.88,8.07,8.75,13.6,11.62,5.53,2.87,12.23,4.31,20.1,4.31,4.13,0,8.23-.23,12.3-.7,4.07-.47,8.03-1.24,11.9-2.31v-34.18h-30.6v-21.4h60.4v72.8c-9.2,2.53-18.4,4.5-27.6,5.9Z"/>
      <path d="M2236.58,148.2V3.6h97.8v22.2h-67v37.8h63.4v22.2h-63.4v40.2h69v22.2h-99.8Z"/>
      <path d="M2360.98,148.2V3.6h31.4v121.8h67.6v22.8h-99Z"/>
      <path d="M2479.78,148.2V3.6h97.8v22.2h-67v37.8h63.4v22.2h-63.4v40.2h69v22.2h-99.8Z"/>
      <path d="M2714.18,105.2c0,8.27-1.8,15.3-5.4,21.1-3.6,5.8-8.27,10.5-14,14.1-5.73,3.6-12.2,6.23-19.4,7.9s-14.33,2.5-21.4,2.5c-7.87,0-15.23-.83-22.1-2.5-6.87-1.67-12.9-4.33-18.1-8-5.2-3.67-9.33-8.5-12.4-14.5-3.07-6-4.67-13.33-4.8-22h31.4c.27,7.8,2.6,13.88,7,18.25,4.4,4.37,10.93,6.55,19.6,6.55,3.2,0,6.4-.4,9.6-1.2,3.2-.8,6.1-2.07,8.7-3.81,2.6-1.74,4.73-3.91,6.4-6.51,1.67-2.6,2.5-5.71,2.5-9.31,0-2.81-.6-5.18-1.8-7.11-1.2-1.93-2.9-3.64-5.1-5.11s-4.93-2.74-8.2-3.81c-3.27-1.07-6.9-2.2-10.9-3.41l-10.4-3.01c-5.73-1.6-11.3-3.47-16.7-5.61-5.4-2.14-10.23-4.77-14.5-7.91-4.27-3.14-7.7-6.94-10.3-11.42-2.6-4.48-3.9-9.98-3.9-16.52,0-8.01,1.7-14.79,5.1-20.33,3.4-5.54,7.83-9.98,13.3-13.32,5.47-3.34,11.63-5.74,18.5-7.21,6.87-1.47,13.7-2.2,20.5-2.2s13.77.67,20.1,2c6.33,1.33,11.9,3.63,16.7,6.9,4.8,3.27,8.63,7.57,11.5,12.9,2.87,5.33,4.3,12,4.3,20h-31.4c-.67-6.67-2.9-11.8-6.7-15.4s-9.43-5.4-16.9-5.4c-2.93,0-5.77.4-8.5,1.2-2.73.8-5.2,1.97-7.4,3.5-2.2,1.53-3.97,3.5-5.3,5.9-1.33,2.4-2,5.2-2,8.4,0,2.67.6,4.9,1.8,6.7,1.2,1.8,3.03,3.43,5.5,4.9,2.47,1.47,5.6,2.87,9.4,4.2,3.8,1.33,8.23,2.8,13.3,4.4l12,3.8c6.13,2,11.7,4.1,16.7,6.3,5,2.2,9.27,4.83,12.8,7.9,3.53,3.07,6.23,6.7,8.1,10.9,1.87,4.2,2.8,9.3,2.8,15.3Z"/>
      <path d="M3041.27,126.6c-3.53,5.73-8,10.4-13.4,14-5.4,3.6-11.53,6.2-18.4,7.8-6.87,1.6-14.04,2.4-21.5,2.4-11.6,0-21.67-1.77-30.2-5.3-8.53-3.53-15.57-8.57-21.1-15.1-5.53-6.53-9.63-14.3-12.3-23.3-2.67-9-4-19.03-4-30.1s1.43-21.03,4.3-30.3c2.87-9.27,7.2-17.3,13-24.1,5.8-6.8,13.03-12.13,21.7-16,8.67-3.87,18.73-5.8,30.2-5.8,7.2,0,14.2.83,21,2.5,6.8,1.67,12.9,4.33,18.3,8,5.4,3.67,9.73,8.4,13,14.2,3.27,5.8,5.03,12.77,5.3,20.9h-32.4c-.8-7.2-3.43-12.67-7.9-16.4-4.47-3.73-10.23-5.6-17.3-5.6s-12.97,1.7-17.7,5.1c-4.73,3.4-8.5,7.73-11.3,13-2.8,5.27-4.8,11.07-6,17.4-1.2,6.33-1.8,12.37-1.8,18.1s.6,11.57,1.8,17.5c1.2,5.93,3.17,11.3,5.9,16.1,2.73,4.8,6.4,8.7,11,11.7,4.6,3,10.3,4.5,17.1,4.5,7.2,0,13.2-1.87,18-5.6,4.8-3.73,7.73-9.27,8.8-16.6h32.6c-.93,8.27-3.17,15.27-6.7,21Z"/>
      <path d="M3170.37,148.2l-12.4-33.2h-63.2l-12.4,33.2h-31l58.6-144.6h35.4l59.6,144.6h-34.6ZM3126.57,26l-24.2,67.8h47.4l-23.2-67.8Z"/>
    </g>
  </g>
</svg>