<?xml version="1.0" encoding="UTF-8"?>
<svg id="Layer_2" data-name="Layer 2" xmlns="http://www.w3.org/2000/svg" viewBox="0 0 673.23 822.62">
  <g id="Layer_1-2" data-name="Layer 1">
    <path d="M673.23,361.29c-2.94-12.05-6.53-23.89-6.4-36.49,0-.22.04-.41.07-.61-.03-.19-.06-.37-.07-.58-.2-11.93,2.28-23.58,3.51-35.4.92-8.85.85-17.76,1.37-26.64.07-3.53.16-7.06.25-10.58-2.15-10.42-3.96-20.91-5.1-31.49-1.22-11.27-1.31-22.6-2.2-33.89-.54-3.97-1.12-7.94-1.73-11.92-.73-4.68-.8-9.38-.7-14.09-.58-5.88-1.25-11.75-2.15-17.56-1.13-7.29-2.42-14.5-2.93-21.78-1.42-4.25-2.83-8.51-4.1-12.81-2.93-4.57-6.07-9.04-8.51-13.85-4.05-7.98-7.05-16.33-12.56-23.48-4.84-6.27-10.65-11.68-15.15-18.23-4.41-6.41-8.04-13.48-13.66-18.96-6.46-6.29-15.83-9.96-23.62-14.36-11.58-6.54-22.93-15.81-36.1-18.57-2.99.19-5.98.59-8.55.86-8.74.91-17.52.87-26.25,1.73-14.25,1.41-29.05,6.31-42.58,10.83-13.81,4.61-27.2,10.6-39.05,19.16-5.77,4.17-10.47,9.49-15.77,14.2-5.74,5.11-11.88,9.76-17.5,15.01-6.08,5.67-9.43,11.62-13.28,18.89-2.65,5.01-7.5,9.23-10.04,14.34l-6.83,14.03c-.79.83-1.68,1.23-2.55,1.32-2.45,1.08-5.23.77-7.25-1.31-2.03-2.09-2.66-5.23-3.21-7.98-.03-.17-.04-.33-.06-.5,0,0,0-.02-.01-.02-.12-.25-.24-.49-.36-.74-.35-.67-.71-1.34-1.07-2-.7-.83-1.42-1.61-2.02-2.33-2.2-2.61-4.23-5.31-6.26-8.06-4.81-6.54-9.59-13.08-13.73-20.08-.65-1.1-1.3-2.18-1.95-3.26-3.45-3.89-7.01-7.65-10.63-11.27-7.33-7.35-15.11-13.98-23.33-19.91-5.86-3.01-11.97-5.52-17.95-8.26-8.31-3.82-16.55-7.85-25.1-11.12-10.19-3.9-20.91-6-31.52-8.5-15.61.09-31.23,1.68-46.28,5.96-15.51,4.42-29.59,12.53-43.09,21.21-6.58,4.23-12.99,8.69-19.57,12.92-6.57,4.23-11.23,10.49-17.56,15-2.27,1.62-4.85,2.6-7.16,4.11-.57.37-1.1.79-1.61,1.23-1.14,1.13-2.26,2.29-3.38,3.44-1.07,1.23-2.11,2.47-3.22,3.61-.84.86-1.69,1.7-2.55,2.54-2.29,2.54-4.53,5.16-6.69,7.85-3.26,5.97-6.15,12.14-9.25,18.22-4.82,9.45-9.48,18.72-12.5,28.93-5.05,17.04-4.36,34.68-6.34,52.05.11,1.81.19,3.64.25,5.49.09.36.16.75.15,1.18,0,.61-.03,1.22-.04,1.83.01.33.02.65.04.99.02.4-.02.76-.08,1.1-.34,11.56-1.67,23.07-1.67,34.65,0,12.48.11,24.96-.24,37.44-.34,11.98-1.81,23.89-2.1,35.86-.18,7.59-.32,15.09-2.06,22.34-.66,17.79-2.88,35.53-1.74,53.31.68,10.57,1.82,21.11,1.92,31.71.08,8.18.51,16.45-1.01,24.52.05,9.44-3.22,18.36-5.89,27.33-.47,2.9-1,5.8-1.7,8.66-.14.58-.36,1.06-.64,1.47-.24,1.58-.43,3.16-.58,4.75-.15,3.57-.31,7.13-.46,10.7-.02,3.6.07,7.21.14,10.82.25,12.31.04,24.34-1.33,36.58-.05.45-.09.89-.14,1.34.04.74.07,1.48.1,2.22.29.53.46,1.16.46,1.9-.04,39.6-3.88,78.95-4.71,118.49-.4,18.96-.23,37.93-.4,56.9-.06,6.56.54,13.45-.62,19.94-.61,3.39-2.16,5.5-4.63,7.85-.79.76-1.5,1.54-2.14,2.35-.06.4-.17.81-.37,1.22-2.67,5.53-5.94,11.94-7.6,18.47-.58,5.75-.35,11.62.97,17.22,4.14,8.68,12.75,14.75,21.41,18.32,8.67,3.58,17.91,5.57,26.77,8.61,1.34.46,2.69.95,4.02,1.49,7.65.51,14.92,2.72,22.39,4.43,5.7,1.3,11.39,1.48,17.17,2.13,6.27.7,16.28,1.46,22.28,5.83,15.69,1.44,31.47,1.34,47.19.18,18.46-1.36,36.76-3.69,55.27-4.49,5.68-.24,11.36-.67,17.04-.82,4.57-.12,10.17-.33,13.8,2.94.02.02.03.04.06.06,18.6.12,37.22.51,55.81-.3,9.85-.43,19.71-1.16,29.48-2.53,8.96-1.25,17.73-3.54,26.69-4.71,17.88-2.34,35.94-.63,53.87.06,18.42.71,36.88,1.64,55.29.22,8.21-.64,15.5-.06,23.47,2.18,4.71,1.33,9.38,2.96,14.12,4.25,10.63-.25,21.29-1.59,31.86-2.4,7.54-.57,15.12-.9,22.68-.39,7.5.51,14.87,2.09,22.38,2.65,15.51,1.16,31.77.33,46.82-3.87,4.42-1.24,9.3-3.77,12.47-7.44.21-.48.4-.98.53-1.54.89-3.84,2.05-7.52,3.51-11.16.16-3.72.13-7.5,1.36-10.99,2.35-6.67,7.02-12.05,8.75-18.99,1.8-7.24,2.3-14.74,3.68-22.07.09-.46.26-.87.49-1.22-.29-11.62-.92-23.24-1.6-34.84-.9-15.24-2.61-30.73-1.6-46,.93-14.12,4.68-27.76,7.93-41.47.24-14.2.48-28.45-.69-42.55-1.42-17-3.33-33.41-1.98-50.51,1.32-16.82,4.97-33.22,7.16-49.91.09-.67.17-1.34.26-2.02l.09-2.92c.07-2.11.14-4.22.21-6.33-.83-27.88-1.85-55.79,0-83.56.44-6.6,1-13.19,1.56-19.78ZM585.94,270.96c-.39,1.01-1.06,1.69-1.83,2.11-.29,5.86-.72,11.7-1.34,17.54-.82,7.74-2.06,15.36-3.43,22.97-.05.31-.09.62-.09.93-.22,10.83-.54,21.66-.89,32.48.62,2.7,1.21,5.41,1.58,8.15,2.05,15.03.64,30.03-1.45,44.96-.5,3.55-.96,7.11-1.59,10.64-.28,1.53-.61,3.06-.88,4.58-.07,2.3-.15,4.6-.22,6.91.06.37.12.75.22,1.13,1.52,5.93,5.19,10.36,5.51,16.72.19,3.76-4.04,4.73-6.4,2.96-.35,10.97-.71,21.94-1.06,32.9,0,.31,0,.61.04.92.82,7.01,1.7,14.01,2.39,21.03,1.72,17.38,1.08,34.49-.02,51.89-1.21,19.19-2.89,38.64-6.59,57.61-.06.31-.1.62-.11.94-.36,11.01-.71,22.01-1.07,33.02-.83,25.57-1.65,51.14-2.48,76.71-.11,3.39-2.95,6.04-6.35,5.92-52.2-1.89-104.44-2.79-156.68-2.66-69.59.18-139.16,2.17-208.64,5.92-21.61,1.17-43.28,2.4-64.93,2.32-1.84.3-3.57.85-5.08,1.82-1.88,1.22-3.85.47-5-1.01-2.08-.02-3.94-.42-5.62-1.14-2-.25-3.68-1.45-4.61-3.13-2.71-2.67-4.63-6.36-5.86-10.36-3.36-11.01-4.09-23.26-4.26-34.7-.2-12.92.74-25.75,2.77-38.51,1.8-11.32,4.05-22.55,4.81-33.97-.13-.43-.18-.91-.13-1.46.11-1.18.23-2.35.36-3.52.01-.55.03-1.1.04-1.65,0-.65.14-1.22.38-1.71,1.69-12.88,4.55-25.57,5.36-38.55.96-15.41,1.23-30.68,3.1-46.03,3.87-31.77,3.89-63.83,3.89-95.78-.26-1.69-.52-3.37-.83-5.03-2.27-12.41-2.65-24.95-1.84-37.52,1.68-26.08,7.69-51.73,7.83-77.93,0-.37.06-.71.13-1.02-.54-6.52.34-13.23,1.05-19.8,1.43-13.27,1.32-26.77,1.78-40.1.48-13.86,1.59-27.66,2.36-41.51.37-6.71.31-13.51,1.35-20.17.95-6.03,2.61-11.89,3.12-17.97-.04-.11-.09-.21-.11-.32-1.66-7.57,2.63-15.43,7.68-20.85,3.67-4.8,9.05-9.07,12.32-12.12,9.2-8.57,17.43-18,27.12-26.08,10.71-8.94,22.57-15.78,36.55-9.94,14.39,6.01,23.98,20.25,33.67,31.8,6.82,8.13,15.33,17.32,16.7,28.28,4.96,7.02,6.65,15.23,8.99,23.45,2.86,10.04,6.1,19.96,9.14,29.95,5.92,19.42,10.7,39.13,11.06,59.52,1.13,2.23,2.22,4.48,3.13,6.84.33.85.64,1.71.94,2.57,10.21,9.61,11.28,26.02,11.31,39.6,0,2.49-2.1,3.89-4.14,3.88,1.8,22.89,2.31,45.65,2.3,68.68,0,.09-.02.17-.03.26,1.68,7.88,3.02,15.91,4.74,23.84,2.51,11.61,6.73,22.51,15.71,30.66,4.17,3.78,9.55,7.46,15.1,8.79,3.41.82,6.92.92,10.42,1.08,3.04-1.31,6.1-2.56,9.2-3.7,4.28-3.11,9.04-5.68,13.65-8.42.25-.34.51-.68.78-1.02,1.82-2.26,3.99-4.21,5.8-6.48,2.39-2.99,4.02-6.69,5.73-10.11,1.7-3.38,3.32-6.75,4.77-10.17.64-29.8,4.51-59.41,8.78-88.88,1.52-10.46,3.09-20.91,4.54-31.37.23-2.39.46-4.77.7-7.16.11-1.09.23-2.18.34-3.28.27-7.81.4-15.62.2-23.49-.19-7.55-.61-16.04,1.36-23.66.33-19.38,1.72-38.82,6.56-57.64,1.05-4.06,2.31-8.02,3.72-11.89,2.06-11.18,6.5-21.39,12.19-31.83,7.55-13.86,14.93-26.97,25.44-38.88,4.75-5.39,9.48-12.19,16-15.45,3.01-1.51,6.19-1.49,9.21-2.97,3.26-1.6,6.1-3.95,9.36-5.56,5.59-2.77,11.29-3.94,17.39-2.24.79.22,1.56.47,2.33.75.63-.05,1.25-.12,1.88-.16,7.65-.51,14.77,1.17,20.98,5.28.59.04,1.17.04,1.75,0,.82-.06,2.57-1.02,4.37-.29,4.43,1.78,4.77,7.36,5.04,11.81.32.54.62,1.1.9,1.66,2.69,2.04,5.17,3.83,7.36,6.78,1.41,1.9,1.83,3.77,1.65,5.68,6.95,9.71,9.97,23.2,12.57,34.26.7,2.98,1.35,5.98,1.98,8.97,2.21,7.73,3.82,15.34,4.97,22.24,1.45,8.69,2.37,17.45,3.03,26.23.91,6.14,1.83,12.27,2.83,18.4,3.39,20.72,9.18,44.51,1.24,64.87Z"/>
  </g>
</svg>