<?xml version="1.0" encoding="UTF-8"?>
<svg id="Layer_2" data-name="Layer 2" xmlns="http://www.w3.org/2000/svg" viewBox="0 0 1559.99 150.6">
  <g id="Layer_1-2" data-name="Layer 1">
    <g>
      <path d="M141,147.4V21.6l-43.2,125.8h-27.6L27,21.4v126H0V2.8h48l37.8,113.4L122.2,2.8h48v144.6h-29.2Z"/>
      <path d="M203.4,147.4V2.8h31.4v144.6h-31.4Z"/>
      <path d="M381.1,125.8c-3.53,5.73-8,10.4-13.4,14-5.4,3.6-11.53,6.2-18.4,7.8-6.87,1.6-14.03,2.4-21.5,2.4-11.6,0-21.67-1.77-30.2-5.3-8.53-3.53-15.57-8.57-21.1-15.1-5.53-6.53-9.63-14.3-12.3-23.3-2.67-9-4-19.03-4-30.1s1.43-21.03,4.3-30.3c2.87-9.27,7.2-17.3,13-24.1,5.8-6.8,13.03-12.13,21.7-16,8.67-3.87,18.73-5.8,30.2-5.8,7.2,0,14.2.83,21,2.5,6.8,1.67,12.9,4.33,18.3,8,5.4,3.67,9.73,8.4,13,14.2,3.27,5.8,5.03,12.77,5.3,20.9h-32.4c-.8-7.2-3.43-12.67-7.9-16.4-4.47-3.73-10.23-5.6-17.3-5.6s-12.97,1.7-17.7,5.1c-4.73,3.4-8.5,7.73-11.3,13-2.8,5.27-4.8,11.07-6,17.4-1.2,6.33-1.8,12.37-1.8,18.1s.6,11.57,1.8,17.5c1.2,5.93,3.17,11.3,5.9,16.1,2.73,4.8,6.4,8.7,11,11.7s10.3,4.5,17.1,4.5c7.2,0,13.2-1.87,18-5.6,4.8-3.73,7.73-9.27,8.8-16.6h32.6c-.93,8.27-3.17,15.27-6.7,21Z"/>
      <path d="M510.2,147.4l-12.4-33.2h-63.2l-12.4,33.2h-31L449.8,2.8h35.4l59.6,144.6h-34.6ZM466.4,25.2l-24.2,67.8h47.4l-23.2-67.8Z"/>
      <path d="M654.4,147.4v-61.8h-62.6v61.8h-31.4V2.8h31.4v59.2h62.6V2.8h31.4v144.6h-31.4Z"/>
      <path d="M896.6,107c0,8.27-1.84,15-5.51,20.2-3.67,5.2-8.32,9.3-13.92,12.3-5.61,3-11.82,5.07-18.63,6.2-6.81,1.13-13.42,1.7-19.83,1.7h-56.9V2.8h50.29c4.54,0,9.32.03,14.33.1,5.01.07,9.72.63,14.13,1.7,8.82,2,16.16,5.87,22.04,11.6,5.88,5.73,8.82,13.47,8.82,23.2s-2.68,16.53-8.05,21.6c-5.37,5.07-12.34,8.73-20.93,11,4.96.93,9.52,2.27,13.67,4,4.16,1.73,7.74,4,10.76,6.8,3.02,2.8,5.39,6.2,7.14,10.2,1.74,4,2.62,8.67,2.62,14ZM860,43.4c0-3.73-.77-6.83-2.3-9.3-1.53-2.47-3.5-4.4-5.9-5.8-2.4-1.4-5.13-2.4-8.2-3-3.07-.6-6.2-.9-9.4-.9h-22v38.6h20c3.47,0,6.87-.23,10.2-.7,3.33-.47,6.3-1.4,8.9-2.8,2.6-1.4,4.7-3.37,6.3-5.9,1.6-2.53,2.4-5.93,2.4-10.2ZM864.4,104.8c0-4.27-.74-7.77-2.21-10.5-1.47-2.73-3.45-4.9-5.92-6.5-2.48-1.6-5.36-2.7-8.63-3.3-3.28-.6-6.79-.9-10.54-.9h-24.9v42.2h23.09c3.61,0,7.19-.27,10.74-.8,3.55-.53,6.66-1.57,9.34-3.1,2.67-1.53,4.85-3.67,6.52-6.4,1.67-2.73,2.51-6.3,2.51-10.7Z"/>
      <path d="M1032.47,134.7c-10.75,10.6-26.74,15.9-47.98,15.9-5.34,0-10.68-.4-16.02-1.2-5.34-.8-10.45-2.13-15.33-4-4.88-1.87-9.38-4.43-13.52-7.7-4.14-3.27-7.61-7.37-10.42-12.3-3.61-6.4-5.81-12.7-6.61-18.9-.8-6.2-1.2-12.9-1.2-20.1V2.8h32.2v85.2c0,5.6.43,10.8,1.3,15.6.87,4.8,2.47,8.97,4.8,12.5,2.33,3.53,5.57,6.33,9.7,8.4,4.13,2.07,9.4,3.1,15.8,3.1s11.67-1.07,15.8-3.2c4.13-2.13,7.4-5.03,9.8-8.7,2.4-3.67,4.07-7.97,5-12.9.93-4.93,1.4-10.13,1.4-15.6V2.8h31.4v84.4c0,21.07-5.38,36.9-16.12,47.5Z"/>
      <path d="M1080.99,147.4V2.8h31.4v121.8h67.6v22.8h-99Z"/>
      <path d="M1199.79,147.4V2.8h31.4v121.8h67.6v22.8h-99Z"/>
      <path d="M1318.59,147.4V2.8h97.8v22.2h-67v37.8h63.4v22.2h-63.4v40.2h69v22.2h-99.8Z"/>
      <path d="M1527.19,147.4c-1.07-2.93-1.87-5.97-2.4-9.1-.54-3.13-1-6.23-1.4-9.3-.4-3.2-.73-6.37-1-9.5-.27-3.13-.53-6.23-.79-9.3-.4-4.4-1-8.13-1.8-11.2-.8-3.07-2.06-5.53-3.78-7.4-1.72-1.87-4.05-3.2-6.97-4-2.92-.8-6.71-1.2-11.35-1.2h-23.31v61h-31.4V2.8h55.4c6,0,11.87.23,17.6.7,5.73.47,11.4,1.83,17,4.1,7.2,3.07,12.87,7.13,17,12.2,4.13,5.07,6.2,11.6,6.2,19.6,0,10.27-3.03,18.2-9.1,23.8-6.07,5.6-13.9,9.33-23.5,11.2v.2c8.13.53,14.27,2.43,18.4,5.7,4.13,3.27,7.07,8.7,8.8,16.3.53,2.13.93,4.4,1.2,6.8.27,2.4.6,4.93,1,7.6.4,3.07.73,6.17,1,9.3.27,3.13.63,6.23,1.1,9.3.47,3.07,1.07,6.1,1.8,9.1.73,3,1.77,5.9,3.1,8.7h-32.8ZM1525.59,44.7c0-4.38-.97-7.86-2.89-10.45s-4.42-4.57-7.47-5.97c-3.06-1.39-6.44-2.29-10.16-2.69-3.72-.4-7.31-.6-10.76-.6h-19.92v40.2h17.73c3.72,0,7.57-.17,11.55-.5,3.98-.33,7.6-1.16,10.86-2.49,3.25-1.32,5.91-3.38,7.97-6.17,2.06-2.79,3.09-6.57,3.09-11.34Z"/>
    </g>
  </g>
</svg>